# xmcd
#
# Track frame offsets:
#	150
#	9150
#	27338
#	35551
#	45999
#	56064
#	64989
#	76112
#	84400
#	93483
#	101141
#	110404
#
# Disc length: 1584 seconds
#
# Revision: 1
# Processed by: cddbd v1.5.2PL0 Copyright (c) Steve Scherf et al.
# Submitted via: audiograbber 1.83.01
#
DISCID=8d062e0c
DTITLE=Kenny Baker and Joe Greene - High Country
DYEAR=1968
DGENRE=Country
TTITLE0=Boating Up Sandy
TTITLE1=High Country
TTITLE2=Reuben's Ridge
TTITLE3=Goldenrod Waltz
TTITLE4=Birdie
TTITLE5=Callahan
TTITLE6=Live And Let Live
TTITLE7=Friday Night Waltz
TTITLE8=Stoney Creek
TTITLE9=Done Gone
TTITLE10=High Point
TTITLE11=Leather Breeches
EXTD=
EXTT0=
EXTT1=
EXTT2=
EXTT3=
EXTT4=
EXTT5=
EXTT6=
EXTT7=
EXTT8=
EXTT9=
EXTT10=
EXTT11=
PLAYORDER=
